<svg version="1.1" id="Layer_1" xmlns="http://www.w3.org/2000/svg" xmlns:xlink="http://www.w3.org/1999/xlink" x="0px" y="0px"
	 viewBox="0 0 24 24" xml:space="preserve">
<path d="M16.11,6.43c0,0.12-0.04,0.22-0.13,0.31L10.71,12l5.26,5.26c0.09,0.09,0.13,0.19,0.13,0.31c0,0.12-0.04,0.22-0.13,0.31
	l-0.67,0.67c-0.09,0.09-0.19,0.13-0.31,0.13s-0.22-0.04-0.31-0.13l-6.24-6.24C8.36,12.22,8.32,12.12,8.32,12s0.04-0.22,0.13-0.31
	l6.24-6.24c0.09-0.09,0.19-0.13,0.31-0.13s0.22,0.04,0.31,0.13l0.67,0.67C16.07,6.21,16.11,6.31,16.11,6.43z"/>
</svg>
