<svg width="24" height="24" xmlns="http://www.w3.org/2000/svg" viewBox="0 0 64 64">
  <g>
    <path d="M29.891 32.022L11.286 22.004 4 26l18.993 9.736 6.898-3.714m0-22.308L23 6 4 16l7.286 3.732L29.891 9.714m4.218 22.308l6.898 3.714L60 26l-7.286-3.996-18.605 10.018M32 10.851L13.396 20.868l18.58 10.005c.008 0 .015-.005.024-.005.009 0 .016.005.024.005l18.581-10.005L32 10.851"/>
    <path d="M41.464 37.754c-.146.076-.305.114-.464.114-.163 0-.326-.04-.474-.119L33 33.696V58l19.481-11.256c.321-.176.519-.512.519-.876V31.711l-11.536 6.043M31 33.696l-7.526 4.053c-.148.079-.311.119-.474.119-.159 0-.318-.038-.464-.114L11 31.711v14.157c0 .364.198.7.519.876L31 58V33.696M60 16L41 6l-6.891 3.714 18.605 10.018L60 16"/>
  </g>
</svg>
