<?xml version="1.0" encoding="utf-8"?>
<!-- Generator: Adobe Illustrator 21.0.2, SVG Export Plug-In . SVG Version: 6.00 Build 0)  -->
<svg version="1.1" id="Layer_1" xmlns="http://www.w3.org/2000/svg" xmlns:xlink="http://www.w3.org/1999/xlink" x="0px" y="0px"
	 viewBox="0 0 64 64" style="enable-background:new 0 0 64 64;" xml:space="preserve">
<path id="path-1_1_" d="M30.1,4.1V15c-2.8-0.1-5.6-0.4-8.2-0.9C24.1,8.7,27,5.1,30.1,4.1z M12.7,11.4c2.8-2.6,6.1-4.6,9.6-5.9
	c-1.6,2.1-3.1,4.8-4.2,7.8C16.2,12.8,14.4,12.1,12.7,11.4z M30.1,18.8v11.3H18.9c0.1-4.3,0.8-8.6,1.9-12.4
	C23.7,18.3,26.9,18.7,30.1,18.8z M30.1,49v10.9c-3.1-1-6.1-4.6-8.2-10.1C24.6,49.4,27.3,49.1,30.1,49z M18.2,50.7
	c1.1,3.1,2.6,5.7,4.2,7.8c-3.6-1.3-6.9-3.3-9.6-5.9C14.4,51.9,16.2,51.2,18.2,50.7z M18.9,33.9h11.2v11.3c-3.2,0.1-6.4,0.4-9.4,1
	C19.7,42.5,19,38.2,18.9,33.9z M3.9,30.1c0.4-5.9,2.5-11.3,6.2-15.8c2.1,1,4.4,1.9,7,2.6c-1.1,4.1-1.8,8.5-1.9,13.2H3.9z M17,47.1
	c-2.5,0.7-4.9,1.6-7,2.6c-3.7-4.5-5.8-10-6.2-15.8h11.2C15.2,38.6,15.9,43,17,47.1z M60.1,30.1l-11.2,0c-0.1-4.7-0.8-9.2-1.9-13.2
	c2.5-0.7,4.9-1.6,7-2.6C57.6,18.8,59.7,24.3,60.1,30.1z M60.1,33.9c-0.4,5.9-2.5,11.3-6.2,15.8c-2.1-1-4.4-1.9-7-2.6
	c1.1-4.1,1.8-8.5,1.9-13.3H60.1z M33.9,15V4.1c3.1,1,6.1,4.6,8.2,10.1C39.4,14.6,36.7,14.9,33.9,15z M45.8,13.3
	c-1.1-3.1-2.6-5.7-4.2-7.8c3.6,1.3,6.9,3.3,9.6,5.9C49.6,12.1,47.8,12.8,45.8,13.3z M45.1,30.1H33.9V18.8c3.2-0.1,6.4-0.4,9.4-1
	C44.3,21.5,45,25.8,45.1,30.1z M33.9,45.2V33.9h11.2c-0.1,4.3-0.8,8.6-1.9,12.4C40.3,45.7,37.1,45.3,33.9,45.2z M51.3,52.6
	c-2.8,2.6-6.1,4.6-9.6,5.9c1.6-2.1,3.1-4.8,4.2-7.8C47.8,51.2,49.6,51.9,51.3,52.6z M42.1,49.9c-2.1,5.4-5.1,9-8.2,10.1V49
	C36.7,49.1,39.4,49.4,42.1,49.9z M32,0C14.4,0,0,14.4,0,32c0,17.6,14.3,31.9,31.9,32l0.2,0C49.7,63.9,64,49.6,64,32
	C64,14.4,49.6,0,32,0z"/>
</svg>
