<svg height="24px" width="24px" viewBox="0 0 64 64" xmlns="http://www.w3.org/2000/svg" xmlns:xlink="http://www.w3.org/1999/xlink">
    <path d="M32 64C14.326888 64 0 49.673112 0 32S14.326888 0 32 0s32 14.326888 32 32-14.326888 32-32 32zm-4-34.4436322v16.2304261c0 1.9641277 1.6162686 3.5563678 3.6100369 3.5563678s3.6100369-1.5922401 3.6100369-3.5563678V29.5563678C35.2200738 27.5922401 33.6038052 26 31.6100369 26S28 27.5922401 28 29.5563678zm7.2200738-11.9466545v-.0533455C35.2200738 15.5922401 33.6038052 14 31.6100369 14S28 15.5922401 28 17.5563678v.0533455c0 1.9641277 1.6162686 3.5563679 3.6100369 3.5563679s3.6100369-1.5922402 3.6100369-3.5563679z" />
</svg>
