<svg width="24" height="24" xmlns="http://www.w3.org/2000/svg" viewBox="0 0 64 64">
  <g>
    <path d="M46.958 30.791c-.075-4.28-2.494-6.867-7.992-8.537V11.669c2.742-1.167 5.995-3.104 5.995-6.669 0-.552-.447-1-.999-1H21.978c-.552 0-.999.448-.999 1 0 3.564 3.279 5.502 6.021 6.669v10.585c-5.587 1.701-8.02 4.344-8.02 8.746 0 .553.447 1 .999 1H31v17c0 1.104.896 2 2 2 1.105 0 2-.896 2-2V32h10.98c.553 0 1-.447 1-1 0-.072-.007-.142-.022-.209"/>
    <path d="M37 46.148V49c0 .062-.016.105-.019.164 3.477.275 5.858.854 6.972 1.336-1.521.658-5.381 1.5-11.203 1.5-5.822 0-9.682-.842-11.203-1.5 1.167-.505 3.72-1.114 7.468-1.372-.002-.047-.015-.079-.015-.128v-2.885c-4.637.286-11 1.25-11 4.385 0 4.176 11.29 4.5 14.75 4.5 3.46 0 14.75-.324 14.75-4.5 0-3.023-5.92-4.027-10.5-4.352"/>
    <path d="M37 41.132v3.001c10.621.676 17 3.944 17 6.367 0 2.715-7.989 6.5-21 6.5s-21-3.785-21-6.5c0-2.423 6.379-5.691 17-6.367v-3.001c-10.301.669-20 3.903-20 9.368C9 56.67 21.365 60 33 60s24-3.33 24-9.5c0-5.465-9.699-8.699-20-9.368"/>
  </g>
</svg>
