<svg width="24" height="24" xmlns="http://www.w3.org/2000/svg" viewBox="0 0 64 64">
    <path
        d="M24.85 59.6a3.4 3.4 0 0 1 5.23-4.36 4.61 4.61 0 0 0 7.5.05 3.4 3.4 0 0 1 5.19 4.41 11.4 11.4 0 0 1-17.92-.11zM27.24 7V3.4A3.4 3.4 0 0 1 30.65 0h3.18a3.4 3.4 0 0 1 3.4 3.4V7C45.88 9.21 52 17.4 52.89 29.75L54 43c0 1.21.29 1.46 2.11 1.46 4.54 0 4.54 6.81 0 6.81H8.4c-4.54 0-4.54-6.81 0-6.81 2.13 0 2.92-.55 2.93-1.73l1.05-13c.94-12.4 6.5-20.49 14.86-22.73zm19.91 36.3l-1.05-13c-.85-11.3-6.39-17.14-13.87-17.14C25 13.16 20 18.8 19.17 30.29L18.13 43a9.08 9.08 0 0 1-.13 1.48h29.22a9.64 9.64 0 0 1-.07-1.18z"/>
</svg>
