<svg id="Layer_1" data-name="Layer 1" xmlns="http://www.w3.org/2000/svg" viewBox="0 0 64 34.7">
  <g>
    <path d="M8,28.85H42.47a1.14,1.14,0,0,0,0-2.29H8a1.14,1.14,0,0,0,0,2.29Z" transform="translate(0 -14.65)"/>
    <path d="M8,33.5H42.47a1.14,1.14,0,0,0,0-2.29H8A1.14,1.14,0,0,0,8,33.5Z" transform="translate(0 -14.65)"/>
    <path d="M49.53,28.85h6.86a1.14,1.14,0,0,0,0-2.29H49.53a1.14,1.14,0,0,0,0,2.29Z" transform="translate(0 -14.65)"/>
    <path d="M59.43,14.65H4.57A4.58,4.58,0,0,0,0,19.22V44.78a4.58,4.58,0,0,0,4.57,4.57H59.43A4.58,4.58,0,0,0,64,44.78V19.22A4.58,4.58,0,0,0,59.43,14.65Zm2.29,30.13a2.29,2.29,0,0,1-2.29,2.29H4.57a2.29,2.29,0,0,1-2.29-2.29V23.46H61.71Zm0-23.61H2.29v-2a2.29,2.29,0,0,1,2.29-2.29H59.43a2.29,2.29,0,0,1,2.29,2.29Z" transform="translate(0 -14.65)"/>
    <path d="M8,44.6H25.94a1.14,1.14,0,0,0,0-2.29H8A1.14,1.14,0,0,0,8,44.6Z" transform="translate(0 -14.65)"/>
  </g>
</svg>
