<svg width="24" height="24" version="1.1" id="Layer_1" xmlns="http://www.w3.org/2000/svg" xmlns:xlink="http://www.w3.org/1999/xlink" x="0px" y="0px"
	 viewBox="0 0 64 64" style="enable-background:new 0 0 64 64;" xml:space="preserve">
<path d="M2.5,19.6C0.8,23.5,0,27.7,0,32s0.8,8.5,2.5,12.4c1.7,3.9,4,7.3,6.8,10.2
	c2.9,2.9,6.3,5.1,10.2,6.8C23.5,63.2,27.7,64,32,64c4.8,0,9.3-1,13.6-3c4.3-2,8-4.9,11-8.5c0.2-0.3,0.3-0.6,0.3-0.9
	c0-0.3-0.1-0.6-0.4-0.9l-5.7-5.8c-0.3-0.2-0.6-0.4-1-0.4c-0.4,0.1-0.8,0.2-1,0.5c-2,2.6-4.5,4.7-7.5,6.1s-6.1,2.2-9.4,2.2
	c-2.9,0-5.6-0.6-8.3-1.7c-2.6-1.1-4.9-2.6-6.8-4.6c-1.9-1.9-3.4-4.2-4.6-6.8c-1.1-2.6-1.7-5.4-1.7-8.3s0.6-5.6,1.7-8.3
	c1.1-2.6,2.6-4.9,4.6-6.8c1.9-1.9,4.2-3.4,6.8-4.6c2.6-1.1,5.4-1.7,8.3-1.7c2.7,0,5.3,0.5,7.8,1.5c2.5,1,4.7,2.4,6.7,4.2l-5.7,5.8
	c-0.9,0.8-1.1,1.8-0.6,2.9c0.5,1.1,1.3,1.7,2.5,1.7h18.7c0.7,0,1.3-0.3,1.9-0.8c0.5-0.5,0.8-1.2,0.8-1.9V5.3c0-1.2-0.6-2-1.7-2.5
	c-1.1-0.5-2-0.3-2.9,0.6L54,8.8c-3-2.8-6.4-5-10.2-6.5C40,0.8,36.1,0,32,0c-4.3,0-8.5,0.8-12.4,2.5c-3.9,1.7-7.3,4-10.2,6.8
	C6.5,12.2,4.2,15.6,2.5,19.6z"/>
</svg>
