<?xml version="1.0" encoding="UTF-8" standalone="no"?>
<svg viewBox="0 0 41 41" version="1.1" xmlns="http://www.w3.org/2000/svg" xmlns:xlink="http://www.w3.org/1999/xlink">
    <g id="Page-1" stroke="none" stroke-width="1" fill="none" fill-rule="evenodd">
        <g id="Desktop-HD" transform="translate(-791.000000, -929.000000)" fill="#FFFFFF">
            <g id="logo-7" transform="translate(791.000000, 929.000000)">
                <path d="M17.8079115,21.6402221 L17.8079115,18.8401632 C17.8079115,17.5474574 18.8556901,16.495325 20.143785,16.495325 C21.4324806,16.495325 22.4802593,17.5474574 22.4802593,18.8401632 L22.4802593,21.6402221 L17.8079115,21.6402221 Z M20.143785,13.0832809 C17.1464411,13.0832809 14.6819984,15.4046044 14.4326704,18.3493691 C14.4212553,18.4307662 14.4080379,18.5115603 14.4080379,18.5959721 L14.4080379,26.4438544 C14.4080379,27.3856485 15.1692395,28.149575 16.1082751,28.149575 C17.0467099,28.149575 17.8079115,27.3856485 17.8079115,26.4438544 L17.8079115,25.0522662 L22.4802593,25.0522662 L22.4802593,26.4438544 C22.4802593,27.3856485 23.2408601,28.149575 24.1798957,28.149575 C25.1189312,28.149575 25.8801328,27.3856485 25.8801328,26.4438544 L25.8801328,18.5959721 C25.8801328,18.5115603 25.8669154,18.4307662 25.8548996,18.3493691 C25.6055715,15.4046044 23.1417296,13.0832809 20.143785,13.0832809 L20.143785,13.0832809 Z" id="Fill-35"></path>
                <path d="M20.1439652,37.4207603 C10.9110166,37.4207603 3.3999336,29.8827897 3.3999336,20.6167897 C3.3999336,11.3507897 10.9110166,3.81281912 20.1439652,3.81281912 C29.3769138,3.81281912 36.8879968,11.3507897 36.8879968,20.6167897 C36.8879968,29.8827897 29.3769138,37.4207603 20.1439652,37.4207603 M20.1439652,0.400775 C9.0365502,0.400775 6.00790514e-05,9.46961324 6.00790514e-05,20.6167897 C6.00790514e-05,31.7639662 9.0365502,40.8328044 20.1439652,40.8328044 C31.2513802,40.8328044 40.2878704,31.7639662 40.2878704,20.6167897 C40.2878704,9.46961324 31.2513802,0.400775 20.1439652,0.400775" id="Fill-36"></path>
            </g>
        </g>
    </g>
</svg>
